:SAMPLES-PER-SECOND 30
:FULLY-SPECIFIED
:DEGREES
1
root  83.1895 40.439 -3.67606 -175.607 -88.8989 175.586
RightUpLeg  0.853559 -8.27875 -5.38782
RightLeg  1.57612 -7.57349 4.11194
RightFoot  -1.10102 0.123466 -1.38486
RightToes  -1.16417e-010 0 -3.6325e-017
Spine  4.71338 0.274145 1.72459
Spine1  -0.532889 0.677184 -2.08238
HEad  -2.63507 4.51498 0.614684
LeftShoulder1  0.758002 -0.451303 -11.9085
LeftArm  -15.3733 5.12706 0.387976
LeftForeArm  10.2561 -0.396428 -2.91056
LeftHand  -0.244104 0.0205437 5.32207
RightShoulder  0.576984 -0.0119898 9.14706
RightArm  -19.9729 3.88917 -1.73967
RightForeArm  6.18365 -1.5027 3.08364
RightHand  -0.751495 2.23132 -11.8106
LeftUpLeg  1.13098 6.52311 5.84044
LeftLeg  0.708457 12.4122 -3.99756
LeftFoot  -0.897022 0.172805 -1.80075
LeftToes  -1.16419e-010 -9.34044e-011 -2.32061e-011
2
root  83.1862 40.439 -3.67661 -175.35 -88.9236 175.331
RightUpLeg  0.853557 -8.27801 -5.38695
RightLeg  1.57497 -7.60696 4.1073
RightFoot  -1.10098 0.124775 -1.40522
RightToes  -1.16417e-010 0 -3.6325e-017
Spine  3.98562 0.379279 1.30766
Spine1  0.562771 0.620471 -1.34004
HEad  -2.92545 4.58248 0.202474
LeftShoulder1  0.826821 -0.682733 -12.5839
LeftArm  -15.4792 5.06699 0.762892
LeftForeArm  9.96682 -0.350648 -2.87179
LeftHand  -0.244104 0.0205437 5.32207
RightShoulder  0.559579 -0.024375 8.6438
RightArm  -20.2388 3.93632 -1.54134
RightForeArm  6.04001 -1.5981 3.00013
RightHand  -0.750865 2.21083 -11.8217
LeftUpLeg  1.12189 6.50596 5.82722
LeftLeg  0.71615 12.4126 -3.97667
LeftFoot  -0.879261 0.173235 -1.80744
LeftToes  -1.16419e-010 -9.34044e-011 -2.32061e-011
3
root  83.1807 40.439 -3.67925 -175.021 -88.9606 175.01
RightUpLeg  0.853551 -8.27447 -5.38177
RightLeg  1.56922 -7.64884 4.10383
RightFoot  -1.09627 0.127164 -1.44237
RightToes  -1.16417e-010 0 -3.6325e-017
Spine  3.15497 0.488837 0.835523
Spine1  1.81957 0.629214 -0.556421
HEad  -3.17697 4.59867 -0.24044
LeftShoulder1  0.918694 -1.00336 -13.2545
LeftArm  -15.6073 4.96816 1.12649
LeftForeArm  9.71598 -0.247297 -2.82145
LeftHand  -0.244104 0.0205437 5.32207
RightShoulder  0.532537 -0.0942623 8.13875
RightArm  -20.4895 3.92391 -1.33409
RightForeArm  5.74932 -1.6618 2.92706
RightHand  -0.748255 2.14798 -11.8758
LeftUpLeg  1.1188 6.49311 5.82074
LeftLeg  0.707709 12.3958 -3.96616
LeftFoot  -0.86462 0.174134 -1.82142
LeftToes  -1.16419e-010 -9.34044e-011 -2.32061e-011
4
root  83.1782 40.439 -3.68339 -174.983 -88.9814 174.979
RightUpLeg  0.852265 -8.26754 -5.36879
RightLeg  1.55675 -7.67484 4.10265
RightFoot  -1.07946 0.130989 -1.50182
RightToes  -1.16417e-010 0 -3.6325e-017
Spine  3.20799 0.43905 0.920975
Spine1  1.77058 0.611699 -0.737902
HEad  -3.03425 4.65586 -0.17581
LeftShoulder1  0.902958 -0.957052 -13.0966
LeftArm  -15.5762 5.02703 1.05222
LeftForeArm  9.81249 -0.23908 -2.82127
LeftHand  -0.244104 0.0205437 5.32207
RightShoulder  0.55626 0.0256466 8.297
RightArm  -20.4487 3.83887 -1.43197
RightForeArm  5.78185 -1.6426 2.93068
RightHand  -0.749966 2.14143 -11.823
LeftUpLeg  1.12757 6.50159 5.83239
LeftLeg  0.677219 12.3718 -3.98176
LeftFoot  -0.860012 0.174036 -1.8199
LeftToes  -1.16419e-010 -9.34044e-011 -2.32061e-011
5
root  83.1791 40.439 -3.68713 -175.344 -88.9754 175.341
RightUpLeg  0.846188 -8.25956 -5.35002
RightLeg  1.55493 -7.67902 4.10041
RightFoot  -1.06983 0.134054 -1.54949
RightToes  -1.16417e-010 0 -3.6325e-017
Spine  3.25601 0.441406 0.916042
Spine1  1.74033 0.610614 -0.717908
HEad  -3.00075 4.54072 -0.127604
LeftShoulder1  0.905506 -0.96713 -13.1094
LeftArm  -15.5286 5.06947 1.05818
LeftForeArm  9.85465 -0.242098 -2.83272
LeftHand  -0.244104 0.0205437 5.32207
RightShoulder  0.554976 0.0226462 8.27079
RightArm  -20.5316 3.85573 -1.39534
RightForeArm  6.09692 -1.71894 2.87605
RightHand  -0.755614 2.21382 -11.6944
LeftUpLeg  1.14137 6.51973 5.85039
LeftLeg  0.644652 12.3715 -4.00336
LeftFoot  -0.860096 0.172238 -1.79194
LeftToes  -1.16419e-010 -9.34044e-011 -2.32061e-011
6
root  83.1813 40.439 -3.68851 -175.59 -88.9609 175.578
RightUpLeg  0.845319 -8.2637 -5.34417
RightLeg  1.56999 -7.66828 4.09706
RightFoot  -1.07393 0.133541 -1.5415
RightToes  -1.16417e-010 0 -3.6325e-017
Spine  3.2472 0.433702 0.945509
Spine1  1.80821 0.601188 -0.718838
HEad  -3.01173 4.40556 -0.103693
LeftShoulder1  0.90487 -0.948004 -13.1881
LeftArm  -15.5276 5.06888 1.11705
LeftForeArm  9.92205 -0.238303 -2.82885
LeftHand  -0.244104 0.0205437 5.32207
RightShoulder  0.549812 -0.000534423 8.22245
RightArm  -20.5961 3.96414 -1.3283
RightForeArm  6.05907 -1.81568 2.85698
RightHand  -0.757643 2.19814 -11.7603
LeftUpLeg  1.15695 6.52576 5.8555
LeftLeg  0.624428 12.3961 -4.01084
LeftFoot  -0.862499 0.169966 -1.75662
LeftToes  -1.16419e-010 -9.34044e-011 -2.32061e-011
7
root  83.1831 40.439 -3.68822 -175.452 -88.9584 175.422
RightUpLeg  0.857195 -8.2689 -5.35645
RightLeg  1.58119 -7.66019 4.09505
RightFoot  -1.07931 0.130325 -1.49151
RightToes  -1.16417e-010 0 -3.6325e-017
Spine  3.1605 0.388175 1.10178
Spine1  2.00557 0.600683 -0.924511
HEad  -2.97657 4.28885 -0.0700691
LeftShoulder1  0.878502 -0.828386 -13.1296
LeftArm  -15.6891 4.95932 1.03317
LeftForeArm  10.0671 -0.192274 -2.76917
LeftHand  -0.244104 0.0205437 5.32207
RightShoulder  0.558548 0.0388094 8.30306
RightArm  -20.5464 4.01088 -1.29779
RightForeArm  5.61553 -1.74376 2.91321
RightHand  -0.757033 2.03335 -11.999
LeftUpLeg  1.1755 6.51522 5.8457
LeftLeg  0.620424 12.4153 -4.00257
LeftFoot  -0.865177 0.169104 -1.74322
LeftToes  -1.16419e-010 -9.34044e-011 -2.32061e-011
8
root  83.1854 40.439 -3.68708 -175.533 -88.95 175.481
RightUpLeg  0.879277 -8.26593 -5.36333
RightLeg  1.57251 -7.65548 4.09466
RightFoot  -1.07494 0.127569 -1.44866
RightToes  -1.16417e-010 0 -3.6325e-017
Spine  3.08078 0.348496 1.31708
Spine1  2.18758 0.622096 -1.22057
HEad  -2.86943 4.13385 -0.0379314
LeftShoulder1  0.852966 -0.734864 -12.957
LeftArm  -15.9971 4.91188 0.771357
LeftForeArm  10.1886 -0.254066 -2.65511
LeftHand  -0.244104 0.0205437 5.32207
RightShoulder  0.572992 0.0903958 8.5002
RightArm  -20.5501 3.95007 -1.25329
RightForeArm  5.50327 -1.49633 2.93878
RightHand  -0.754344 1.92366 -12.1286
LeftUpLeg  1.18955 6.50634 5.84235
LeftLeg  0.634322 12.4247 -3.98824
LeftFoot  -0.866047 0.170265 -1.76126
LeftToes  -1.16419e-010 -9.34044e-011 -2.32061e-011
